<svg width="108" height="31" viewBox="0 0 108 31" fill="none" xmlns="http://www.w3.org/2000/svg">
<path d="M0 12.0964V14.5157H2.30828V12.0964H0Z" fill="white"/>
<path d="M10.9376 4.25393C9.47234 4.25393 8.2881 4.91923 7.54544 5.88695H7.46515V0H5.55833V14.5158H7.46515V9.53606C7.46515 7.54014 8.70962 6.10872 10.5362 6.10872C12.2624 6.10872 13.266 7.39902 13.266 9.13284V14.5158H15.1728V8.79011C15.1728 6.02808 13.4667 4.25393 10.9376 4.25393Z" fill="white"/>
<path d="M24.9969 4.53621H20.4808V1.00807H18.574V4.53621H16.7675V6.391H18.574V12.0159C18.574 13.6287 19.4772 14.5158 21.103 14.5158H24.9969V12.6408H21.4844C20.8421 12.6408 20.4808 12.2779 20.4808 11.653V6.391H24.9969V4.53621Z" fill="white"/>
<path d="M38.6185 4.27408C37.0929 4.27408 35.9289 5.02003 35.2865 6.20953H35.2263C34.6442 5.04021 33.5603 4.27408 32.0751 4.27408C30.7503 4.27408 29.7466 4.97971 29.1446 5.9676H29.0642V4.53618H27.2377V14.5158H29.1446V9.39494C29.1446 7.51997 30.1279 6.14905 31.6134 6.10873C33.0183 6.0684 33.8413 7.07645 33.8413 8.58849V14.5158H35.7482V9.23364C35.7482 6.9958 37.073 6.10873 38.217 6.10873C39.602 6.10873 40.425 7.07645 40.425 8.58849V14.5158H42.3317V8.38689C42.3317 5.9676 40.9668 4.27408 38.6185 4.27408Z" fill="white"/>
<path d="M44.916 11.9352C44.916 13.5682 45.8393 14.5158 47.5453 14.5158H49.432V12.661H47.8263C47.184 12.661 46.8226 12.2981 46.8226 11.6731V0H44.916V11.9352Z" fill="white"/>
<path d="M27.1454 18.5068H27.065C26.321 17.5047 25.1146 16.8032 23.506 16.7832C20.55 16.7431 18.4387 18.9277 18.4387 22.0142C18.4387 25.1208 20.5902 27.3055 23.4858 27.2654C25.1346 27.2453 26.321 26.5037 27.065 25.4414H27.1454V26.9847H29.0357V17.0638H27.1454V18.5068ZM23.7672 25.4215C21.6761 25.4215 20.3489 23.8982 20.3489 22.0142C20.3489 20.1303 21.6761 18.607 23.7672 18.607C25.7982 18.607 27.1254 20.1303 27.1254 22.0142C27.1254 23.8782 25.7982 25.4215 23.7672 25.4215Z" fill="white"/>
<path d="M41.5184 20.6713C41.0559 18.4266 39.0652 16.7831 36.4513 16.7831C33.2944 16.7831 31.183 19.088 31.183 22.0142C31.183 24.9403 33.2944 27.2654 36.4513 27.2654C39.0652 27.2654 41.0559 25.5817 41.5184 23.3169H39.5278C39.1257 24.5796 37.9393 25.4414 36.4714 25.4414C34.4203 25.4414 33.0931 23.8981 33.0931 22.0142C33.0931 20.1302 34.4203 18.607 36.4714 18.607C37.9995 18.607 39.1257 19.5089 39.5278 20.6713H41.5184Z" fill="white"/>
<path d="M51.7307 18.5068H51.6503C50.9063 17.5047 49.6997 16.8032 48.091 16.7832C45.1352 16.7431 43.0239 18.9277 43.0239 22.0142C43.0239 25.1208 45.1755 27.3055 48.0709 27.2654C49.7199 27.2453 50.9063 26.5037 51.6503 25.4414H51.7307V26.9847H53.6208V17.0638H51.7307V18.5068ZM48.3526 25.4215C46.2612 25.4215 44.9341 23.8982 44.9341 22.0142C44.9341 20.1303 46.2612 18.607 48.3526 18.607C50.3835 18.607 51.7105 20.1303 51.7105 22.0142C51.7105 23.8782 50.3835 25.4215 48.3526 25.4215Z" fill="white"/>
<path d="M64.4749 18.6069H64.3945C63.6505 17.5447 62.4036 16.8031 60.8151 16.7831C57.9197 16.743 55.7681 18.9276 55.7681 22.0342C55.7681 25.1207 57.8794 27.3054 60.8352 27.2653C62.4036 27.2452 63.6505 26.5437 64.3743 25.5416H64.4749V26.9846H66.365V12.5542H64.4749V18.6069ZM61.0967 25.4413C59.0053 25.4413 57.6783 23.9182 57.6783 22.0342C57.6783 20.1502 59.0053 18.627 61.0967 18.627C63.1277 18.627 64.4547 20.1702 64.4547 22.0342C64.4547 23.9182 63.1277 25.4413 61.0967 25.4413Z" fill="white"/>
<path d="M73.5618 16.7831C70.5054 16.7831 68.414 19.1281 68.414 22.0342C68.414 24.8602 70.3848 27.2654 73.6019 27.2654C75.9344 27.2654 77.8046 26.0027 78.4682 23.8981H76.4774C76.0352 24.8402 74.9694 25.4414 73.6825 25.4414C71.8727 25.4414 70.5858 24.2389 70.445 22.6956H78.6693C78.9306 19.3886 76.8596 16.7831 73.5618 16.7831ZM73.5215 18.607C75.11 18.607 76.2965 19.5891 76.598 21.0121H70.4853C70.7667 19.6091 71.9531 18.607 73.5215 18.607Z" fill="white"/>
<path d="M92.2212 16.8032C90.6931 16.8032 89.5268 17.5447 88.8833 18.7272H88.8229C88.2399 17.5648 87.154 16.8032 85.666 16.8032C84.339 16.8032 83.3335 17.5047 82.7303 18.4867H82.6499V17.0637H80.82V26.9846H82.7303V21.8939C82.7303 20.03 83.7156 18.6671 85.2036 18.627C86.611 18.5869 87.4356 19.5891 87.4356 21.0922V26.9846H89.3459V21.7336C89.3459 19.5089 90.6729 18.627 91.819 18.627C93.2065 18.627 94.0309 19.5891 94.0309 21.0922V26.9846H95.9412V20.8918C95.9412 18.4867 94.5738 16.8032 92.2212 16.8032Z" fill="white"/>
<path d="M102.78 25.4012L99.3614 17.0637H97.25L101.794 27.9267L101.774 27.9668C101.453 28.7884 101.091 29.0891 100.206 29.0891H97.8534V30.993H100.206C101.935 30.993 102.86 30.2114 103.504 28.5278L107.887 17.0637H105.937L102.78 25.4012Z" fill="white"/>
</svg>
